# xmcd
#
# Track frame offsets:
#	150
#	17355
#	34573
#	51153
#	66883
#	85238
#	101668
#	116528
#	137428
#	154205
#	170455
#	185498
#	206228
#	224948
#	240653
#
# Disc length: 3433 seconds
#
# Revision: 1
# Processed by: cddbd v1.5.1PL0 Copyright (c) Steve Scherf et al.
# Submitted via: CDex 1.50Beta5
#
DISCID=d30d670f
DTITLE=石原裕次郎 - 石原裕次郎ザ・スーパースター19
DYEAR=1900
DGENRE=
TTITLE0=秋子
TTITLE1=旅路の町
TTITLE2=霧の波止場で
TTITLE3=青いサファイヤ
TTITLE4=海を離れた男のブルース
TTITLE5=海びとの詩
TTITLE6=海よお前だけに
TTITLE7=それぞれの旅
TTITLE8=行先
TTITLE9=昭和たずねびと
TTITLE10=嘆きの天使
TTITLE11=引き潮
TTITLE12=恋無情
TTITLE13=旅路の町
TTITLE14=紫の雨
EXTD=
EXTT0=
EXTT1=
EXTT2=
EXTT3=
EXTT4=
EXTT5=
EXTT6=
EXTT7=
EXTT8=
EXTT9=
EXTT10=
EXTT11=
EXTT12=
EXTT13=
EXTT14=
PLAYORDER=
